<svg version="1.1" id="Layer_1" xmlns="http://www.w3.org/2000/svg" xmlns:xlink="http://www.w3.org/1999/xlink" x="0px" y="0px" viewBox="0 0 500 500" style="width: 151px;" xml:space="preserve" data-imageid="credit-card-2-58" imageName="Credit Card 2" class="illustrations_image">
<style type="text/css">
	.st0_credit-card-2-58{fill:#68E1FD;}
	.st1_credit-card-2-58{fill:#093F68;}
	.st2_credit-card-2-58{fill:#FFFFFF;}
	.st3_credit-card-2-58{fill:#FFBC0E;}
	.st4_credit-card-2-58{fill:#F56132;}
</style>
<g id="machine_credit-card-2-58">
	<path class="st0_credit-card-2-58 targetColor" d="M192.1,415.6l-7.6-2.5c-3.2-1.1-5.4-4-5.5-7.4l-9.8-310c-0.1-3.4,1.9-6.5,5.1-7.8l8.5-3.4L192.1,415.6z" style="fill: rgb(223, 155, 255);"/>
	<path class="st1_credit-card-2-58" d="M192.1,417.4c-0.2,0-0.4,0-0.6-0.1l-7.6-2.5c-3.9-1.3-6.7-5-6.8-9.1l-9.8-310c-0.1-4.2,2.4-8,6.2-9.5l8.5-3.4&#10;&#9;&#9;c1-0.4,2,0.1,2.4,1c0.1,0.2,0.1,0.4,0.1,0.6l9.3,331.1c0,0.6-0.3,1.2-0.8,1.5C192.9,417.3,192.5,417.4,192.1,417.4z M181,87.2&#10;&#9;&#9;l-6,2.4c-2.4,1-4,3.4-3.9,6l9.8,310c0.1,2.6,1.8,4.9,4.3,5.7l5.1,1.7L181,87.2z"/>
	<path class="st0_credit-card-2-58 targetColor" d="M370.4,415.6l7.6-2.5c3.2-1.1,5.4-4,5.5-7.4l9.8-310c0.1-3.4-1.9-6.5-5.1-7.8l-8.5-3.4L370.4,415.6z" style="fill: rgb(223, 155, 255);"/>
	<path class="st1_credit-card-2-58" d="M370.4,417.4c-0.4,0-0.8-0.1-1.1-0.4c-0.5-0.4-0.8-0.9-0.8-1.5L378,84.4c0-0.6,0.3-1.2,0.8-1.5&#10;&#9;&#9;c0.5-0.3,1.1-0.4,1.7-0.2l8.5,3.4c3.9,1.6,6.3,5.4,6.2,9.5l-9.8,310c-0.1,4.2-2.9,7.8-6.8,9.1l-7.6,2.5&#10;&#9;&#9;C370.8,417.4,370.6,417.4,370.4,417.4z M381.6,87.2L372.4,413l5.1-1.7c2.5-0.8,4.2-3.1,4.3-5.7l9.8-310c0.1-2.6-1.5-5-3.9-6&#10;&#9;&#9;L381.6,87.2z"/>
	<path class="st0_credit-card-2-58 targetColor" d="M370.4,415.6c0,0-3,14.1-89.1,14.1s-89.1-14.1-89.1-14.1l-9.4-331.1c0,0,11.8-14.2,98.5-14.2&#10;&#9;&#9;s98.5,14.2,98.5,14.2L370.4,415.6z" style="fill: rgb(223, 155, 255);"/>
	<path class="st1_credit-card-2-58" d="M281.3,431.5c-83.5,0-90.4-13-91-15.6c0-0.1,0-0.2,0-0.3l-9.4-331.1c0-0.5,0.1-0.9,0.4-1.2&#10;&#9;&#9;c0.5-0.6,13.4-14.8,100-14.8s99.4,14.2,99.9,14.8c0.3,0.3,0.4,0.8,0.4,1.2l-9.4,331.1c0,0.1,0,0.2,0,0.3&#10;&#9;&#9;C371.7,418.5,364.7,431.5,281.3,431.5z M194,415.2c0.6,0.9,9.3,12.6,87.3,12.6c76.6,0,86.4-11.3,87.3-12.7l9.4-329.8&#10;&#9;&#9;c-2.9-2.2-21.1-13.1-96.6-13.1c-43.6,0-67.6,3.7-80.1,6.7c-10.9,2.7-15.2,5.4-16.5,6.4L194,415.2z M370.4,415.6L370.4,415.6z"/>
	<path class="st2_credit-card-2-58" d="M216.8,110.4h129c5.4,0,9.8,4.4,9.8,9.8v90.4c0,5.4-4.4,9.8-9.8,9.8h-129c-5.4,0-9.8-4.4-9.8-9.8v-90.4&#10;&#9;&#9;C207,114.8,211.4,110.4,216.8,110.4z"/>
	<path class="st1_credit-card-2-58" d="M347.3,222.1H215.2c-5.6,0-10.1-4.5-10.1-10.1v-93.5c0-5.6,4.5-10.1,10.1-10.1h132.1c5.6,0,10.1,4.5,10.1,10.1&#10;&#9;&#9;v93.5C357.4,217.6,352.9,222.1,347.3,222.1z M215.2,112.3c-3.5,0-6.3,2.8-6.4,6.3v93.5c0,3.5,2.8,6.3,6.4,6.4h132.1&#10;&#9;&#9;c3.5,0,6.3-2.8,6.4-6.4v-93.5c0-3.5-2.8-6.3-6.4-6.3H215.2z"/>
	<path class="st1_credit-card-2-58" d="M207.6,297.3h37c1.5,0,2.6,1.2,2.6,2.6v14.9c0,1.5-1.2,2.6-2.6,2.6h-37c-1.5,0-2.6-1.2-2.6-2.6V300&#10;&#9;&#9;C204.9,298.5,206.1,297.3,207.6,297.3z"/>
	<path class="st1_credit-card-2-58" d="M242.3,319.4h-32.4c-3.7,0-6.8-3-6.8-6.8v-10.4c0-3.7,3-6.8,6.8-6.8h32.4c3.7,0,6.8,3,6.8,6.8v10.4&#10;&#9;&#9;C249.1,316.4,246,319.4,242.3,319.4z M209.8,299.2c-1.7,0-3.1,1.4-3.1,3.1v10.4c0,1.7,1.4,3.1,3.1,3.1h32.4c1.7,0,3.1-1.4,3.1-3.1&#10;&#9;&#9;v-10.4c0-1.7-1.4-3.1-3.1-3.1H209.8z"/>
	<path class="st1_credit-card-2-58" d="M264,297.3h37c1.5,0,2.6,1.2,2.6,2.6v14.9c0,1.5-1.2,2.6-2.6,2.6h-37c-1.5,0-2.6-1.2-2.6-2.6V300&#10;&#9;&#9;C261.3,298.5,262.5,297.3,264,297.3z"/>
	<path class="st1_credit-card-2-58" d="M298.7,319.4h-32.4c-3.7,0-6.8-3-6.8-6.8v-10.4c0-3.7,3-6.8,6.8-6.8h32.4c3.7,0,6.8,3,6.8,6.8v10.4&#10;&#9;&#9;C305.5,316.4,302.4,319.4,298.7,319.4z M266.2,299.2c-1.7,0-3.1,1.4-3.1,3.1l0,0v10.4c0,1.7,1.4,3.1,3.1,3.1l0,0h32.4&#10;&#9;&#9;c1.7,0,3.1-1.4,3.1-3.1v-10.4c0-1.7-1.4-3.1-3.1-3.1H266.2z"/>
	<path class="st1_credit-card-2-58" d="M320.4,297.3h37c1.5,0,2.6,1.2,2.6,2.6v14.9c0,1.5-1.2,2.6-2.6,2.6h-37c-1.5,0-2.6-1.2-2.6-2.6V300&#10;&#9;&#9;C317.7,298.5,318.9,297.3,320.4,297.3z"/>
	<path class="st1_credit-card-2-58" d="M355.1,319.4h-32.4c-3.7,0-6.8-3-6.8-6.8v-10.4c0-3.7,3-6.8,6.8-6.8h32.5c3.7,0,6.8,3,6.8,6.8v10.4&#10;&#9;&#9;C361.9,316.4,358.8,319.4,355.1,319.4z M322.6,299.2c-1.7,0-3.1,1.4-3.1,3.1v10.4c0,1.7,1.4,3.1,3.1,3.1h32.5&#10;&#9;&#9;c1.7,0,3.1-1.4,3.1-3.1v-10.4c0-1.7-1.4-3.1-3.1-3.1H322.6z"/>
	<path class="st1_credit-card-2-58" d="M208.1,243.8H244c1.8,0,3.2,1.4,3.2,3.2v23.6c0,1.8-1.4,3.2-3.2,3.2h-35.8c-1.8,0-3.2-1.4-3.2-3.2V247&#10;&#9;&#9;C204.9,245.2,206.4,243.8,208.1,243.8z"/>
	<path class="st1_credit-card-2-58" d="M241.2,275.6h-30.3c-4.3,0-7.9-3.5-7.9-7.9v-18c0-4.3,3.5-7.9,7.9-7.9h30.3c4.3,0,7.9,3.5,7.9,7.9v18&#10;&#9;&#9;C249.1,272.1,245.5,275.6,241.2,275.6z M210.9,245.6c-2.3,0-4.1,1.9-4.1,4.1v18c0,2.3,1.9,4.1,4.1,4.1h30.3c2.3,0,4.1-1.9,4.1-4.1&#10;&#9;&#9;v-18c0-2.3-1.9-4.1-4.1-4.1H210.9z"/>
	<path class="st1_credit-card-2-58" d="M264.5,243.8h35.8c1.8,0,3.2,1.4,3.2,3.2v23.6c0,1.8-1.4,3.2-3.2,3.2h-35.8c-1.8,0-3.2-1.4-3.2-3.2V247&#10;&#9;&#9;C261.3,245.2,262.8,243.8,264.5,243.8z"/>
	<path class="st1_credit-card-2-58" d="M297.6,275.6h-30.3c-4.3,0-7.9-3.5-7.9-7.9v-18c0-4.3,3.5-7.9,7.9-7.9h30.3c4.3,0,7.9,3.5,7.9,7.9v18&#10;&#9;&#9;C305.5,272.1,301.9,275.6,297.6,275.6z M267.3,245.6c-2.3,0-4.1,1.9-4.1,4.1v18c0,2.3,1.9,4.1,4.1,4.1h30.3c2.3,0,4.1-1.9,4.1-4.1&#10;&#9;&#9;v-18c0-2.3-1.9-4.1-4.1-4.1H267.3z"/>
	<path class="st1_credit-card-2-58" d="M320.9,243.8h35.8c1.8,0,3.2,1.4,3.2,3.2v23.6c0,1.8-1.4,3.2-3.2,3.2h-35.8c-1.8,0-3.2-1.4-3.2-3.2V247&#10;&#9;&#9;C317.7,245.2,319.2,243.8,320.9,243.8z"/>
	<path class="st1_credit-card-2-58" d="M354,275.6h-30.3c-4.3,0-7.9-3.5-7.9-7.9v-18c0-4.3,3.5-7.9,7.9-7.9H354c4.3,0,7.9,3.5,7.9,7.9v18&#10;&#9;&#9;C361.9,272.1,358.3,275.6,354,275.6z M323.7,245.6c-2.3,0-4.1,1.9-4.1,4.1v18c0,2.3,1.9,4.1,4.1,4.1H354c2.3,0,4.1-1.9,4.1-4.1v-18&#10;&#9;&#9;c0-2.3-1.9-4.1-4.1-4.1H323.7z"/>
	<path class="st1_credit-card-2-58" d="M207.6,332.3h37c1.5,0,2.6,1.2,2.6,2.6v14.9c0,1.5-1.2,2.6-2.6,2.6h-37c-1.5,0-2.6-1.2-2.6-2.6v-14.9&#10;&#9;&#9;C204.9,333.4,206.1,332.3,207.6,332.3z"/>
	<path class="st1_credit-card-2-58" d="M242.3,354.4h-32.4c-3.7,0-6.8-3-6.8-6.8v-10.4c0-3.7,3-6.8,6.8-6.8h32.4c3.7,0,6.8,3,6.8,6.8v10.4&#10;&#9;&#9;C249.1,351.3,246,354.3,242.3,354.4z M209.8,334.1c-1.7,0-3.1,1.4-3.1,3.1v10.4c0,1.7,1.4,3.1,3.1,3.1h32.4c1.7,0,3.1-1.4,3.1-3.1&#10;&#9;&#9;v-10.4c0-1.7-1.4-3.1-3.1-3.1H209.8z"/>
	<path class="st1_credit-card-2-58" d="M264,332.3h37c1.5,0,2.6,1.2,2.6,2.6v14.9c0,1.5-1.2,2.6-2.6,2.6h-37c-1.5,0-2.6-1.2-2.6-2.6v-14.9&#10;&#9;&#9;C261.3,333.4,262.5,332.3,264,332.3z"/>
	<path class="st1_credit-card-2-58" d="M298.7,354.4h-32.4c-3.7,0-6.8-3-6.8-6.8v-10.4c0-3.7,3-6.8,6.8-6.8h32.4c3.7,0,6.8,3,6.8,6.8v10.4&#10;&#9;&#9;C305.5,351.3,302.4,354.4,298.7,354.4C298.7,354.4,298.7,354.4,298.7,354.4z M266.2,334.1c-1.7,0-3.1,1.4-3.1,3.1l0,0v10.4&#10;&#9;&#9;c0,1.7,1.4,3.1,3.1,3.1c0,0,0,0,0,0h32.4c1.7,0,3.1-1.4,3.1-3.1v-10.4c0-1.7-1.4-3.1-3.1-3.1H266.2z"/>
	<path class="st1_credit-card-2-58" d="M320.4,332.3h37c1.5,0,2.6,1.2,2.6,2.6v14.9c0,1.5-1.2,2.6-2.6,2.6h-37c-1.5,0-2.6-1.2-2.6-2.6v-14.9&#10;&#9;&#9;C317.7,333.4,318.9,332.3,320.4,332.3z"/>
	<path class="st1_credit-card-2-58" d="M355.1,354.4h-32.4c-3.7,0-6.8-3-6.8-6.8v-10.4c0-3.7,3-6.8,6.8-6.8h32.5c3.7,0,6.8,3,6.8,6.8v10.4&#10;&#9;&#9;C361.9,351.3,358.8,354.3,355.1,354.4z M322.6,334.1c-1.7,0-3.1,1.4-3.1,3.1v10.4c0,1.7,1.4,3.1,3.1,3.1h32.5&#10;&#9;&#9;c1.7,0,3.1-1.4,3.1-3.1v-10.4c0-1.7-1.4-3.1-3.1-3.1H322.6z"/>
	<path class="st1_credit-card-2-58" d="M207.6,367.2h37c1.5,0,2.6,1.2,2.6,2.6v14.9c0,1.5-1.2,2.6-2.6,2.6h-37c-1.5,0-2.6-1.2-2.6-2.6v-14.9&#10;&#9;&#9;C204.9,368.4,206.1,367.2,207.6,367.2z"/>
	<path class="st1_credit-card-2-58" d="M242.3,389.3h-32.4c-3.7,0-6.8-3-6.8-6.8v-10.4c0-3.7,3-6.8,6.8-6.8h32.4c3.7,0,6.8,3,6.8,6.8v10.4&#10;&#9;&#9;C249.1,386.3,246,389.3,242.3,389.3z M209.8,369.1c-1.7,0-3.1,1.4-3.1,3.1v10.4c0,1.7,1.4,3.1,3.1,3.1h32.4c1.7,0,3.1-1.4,3.1-3.1&#10;&#9;&#9;v-10.4c0-1.7-1.4-3.1-3.1-3.1L209.8,369.1z"/>
	<path class="st1_credit-card-2-58" d="M264,367.2h37c1.5,0,2.6,1.2,2.6,2.6v14.9c0,1.5-1.2,2.6-2.6,2.6h-37c-1.5,0-2.6-1.2-2.6-2.6v-14.9&#10;&#9;&#9;C261.3,368.4,262.5,367.2,264,367.2z"/>
	<path class="st1_credit-card-2-58" d="M298.7,389.3h-32.4c-3.7,0-6.8-3-6.8-6.8v-10.4c0-3.7,3-6.8,6.8-6.8h32.4c3.8,0,6.8,3,6.8,6.8c0,0,0,0,0,0&#10;&#9;&#9;v10.4C305.5,386.3,302.4,389.3,298.7,389.3z M266.2,369.1c-1.7,0-3.1,1.4-3.1,3.1c0,0,0,0,0,0v10.4c0,1.7,1.4,3.1,3.1,3.1l0,0h32.4&#10;&#9;&#9;c1.7,0,3.1-1.4,3.1-3.1v-10.4c0-1.7-1.4-3.1-3.1-3.1L266.2,369.1z"/>
	<path class="st1_credit-card-2-58" d="M320.4,367.2h37c1.5,0,2.6,1.2,2.6,2.6v14.9c0,1.5-1.2,2.6-2.6,2.6h-37c-1.5,0-2.6-1.2-2.6-2.6v-14.9&#10;&#9;&#9;C317.7,368.4,318.9,367.2,320.4,367.2z"/>
	<path class="st1_credit-card-2-58" d="M355.1,389.3h-32.4c-3.7,0-6.8-3-6.8-6.8v-10.4c0-3.7,3-6.8,6.8-6.8h32.5c3.7,0,6.8,3,6.8,6.8v10.4&#10;&#9;&#9;C361.9,386.3,358.8,389.3,355.1,389.3z M322.6,369.1c-1.7,0-3.1,1.4-3.1,3.1v10.4c0,1.7,1.4,3.1,3.1,3.1h32.5&#10;&#9;&#9;c1.7,0,3.1-1.4,3.1-3.1v-10.4c0-1.7-1.4-3.1-3.1-3.1L322.6,369.1z"/>
</g>
<g id="card_credit-card-2-58">
	<path class="st3_credit-card-2-58" d="M120.1,142.1h201.5c7.4,0,13.5,6,13.5,13.5v119.2c0,7.4-6,13.5-13.5,13.5H120.1c-7.4,0-13.5-6-13.5-13.5V155.6&#10;&#9;&#9;C106.7,148.1,112.7,142.1,120.1,142.1z"/>
	<path class="st1_credit-card-2-58" d="M320.8,290.1H121c-8.9,0-16.2-7.2-16.2-16.1V156.4c0-8.9,7.3-16.2,16.2-16.2h0h199.8c8.9,0,16.2,7.2,16.2,16.2&#10;&#9;&#9;V274C337,282.9,329.7,290.1,320.8,290.1z M121,143.9c-6.9,0-12.4,5.6-12.4,12.4V274c0,6.9,5.6,12.4,12.4,12.4h199.8&#10;&#9;&#9;c6.9,0,12.4-5.5,12.4-12.4V156.4c0-6.9-5.6-12.4-12.4-12.4H121z"/>
	<circle class="st0_credit-card-2-58 targetColor" cx="265.4" cy="190.1" r="16.1" style="fill: rgb(223, 155, 255);"/>
	<path class="st1_credit-card-2-58" d="M265.4,208.1c-9.9,0-17.9-8-17.9-17.9c0-9.9,8-17.9,17.9-17.9c9.9,0,17.9,8,17.9,17.9&#10;&#9;&#9;C283.3,200,275.3,208,265.4,208.1z M265.4,175.9c-7.8,0-14.2,6.4-14.2,14.2s6.4,14.2,14.2,14.2c7.8,0,14.2-6.4,14.2-14.2l0,0&#10;&#9;&#9;C279.6,182.3,273.2,175.9,265.4,175.9z"/>
	<circle class="st4_credit-card-2-58" cx="290.5" cy="190.1" r="16.1"/>
	<path class="st1_credit-card-2-58" d="M290.5,208.1c-9.9,0-17.9-8-17.9-17.9s8-17.9,17.9-17.9c9.9,0,17.9,8,17.9,17.9&#10;&#9;&#9;C308.4,200,300.4,208,290.5,208.1z M290.5,175.9c-7.8,0-14.2,6.4-14.2,14.2c0,7.8,6.4,14.2,14.2,14.2c7.8,0,14.2-6.4,14.2-14.2l0,0&#10;&#9;&#9;C304.7,182.3,298.3,175.9,290.5,175.9z"/>
	<path class="st1_credit-card-2-58" d="M155,208h-15.4c-5.6,0-10.2-4.6-10.2-10.2v-15.4c0-5.6,4.6-10.2,10.2-10.2H155c5.6,0,10.2,4.6,10.2,10.2v15.4&#10;&#9;&#9;C165.2,203.4,160.6,208,155,208z M139.6,175.9c-3.6,0-6.5,2.9-6.5,6.5v15.4c0,3.6,2.9,6.5,6.5,6.5H155c3.6,0,6.5-2.9,6.5-6.5v-15.4&#10;&#9;&#9;c0-3.6-2.9-6.5-6.5-6.5H139.6z"/>
	<path class="st1_credit-card-2-58" d="M154.4,255.3h-25.6c-1-0.1-1.8-1-1.7-2c0.1-0.9,0.8-1.7,1.7-1.7h25.6c1,0.1,1.8,1,1.7,2&#10;&#9;&#9;C156,254.5,155.3,255.2,154.4,255.3z"/>
	<path class="st1_credit-card-2-58" d="M190.2,255.3h-25.6c-1,0.1-1.9-0.7-2-1.7c-0.1-1,0.7-1.9,1.7-2c0.1,0,0.2,0,0.3,0h25.6c1,0.1,1.8,1,1.7,2&#10;&#9;&#9;C191.8,254.5,191.1,255.2,190.2,255.3z"/>
	<path class="st1_credit-card-2-58" d="M226,255.3h-25.6c-1,0.1-1.9-0.7-2-1.7c-0.1-1,0.7-1.9,1.7-2c0.1,0,0.2,0,0.3,0H226c1-0.1,1.9,0.7,2,1.7&#10;&#9;&#9;c0.1,1-0.7,1.9-1.7,2C226.2,255.3,226.1,255.3,226,255.3z"/>
	<path class="st1_credit-card-2-58" d="M261.8,255.3h-25.6c-1,0.1-1.9-0.7-2-1.7c-0.1-1,0.7-1.9,1.7-2c0.1,0,0.2,0,0.3,0h25.6c1-0.1,1.9,0.7,2,1.7&#10;&#9;&#9;c0.1,1-0.7,1.9-1.7,2C262,255.3,261.9,255.3,261.8,255.3z"/>
</g>
</svg>