<svg version="1.1" id="Layer_1" xmlns="http://www.w3.org/2000/svg" xmlns:xlink="http://www.w3.org/1999/xlink" x="0px" y="0px" viewBox="0 0 500 500" style="width: 151px;" xml:space="preserve" data-imageid="family-2-4" imageName="Family 2" class="illustrations_image">
<style type="text/css">
	.st0_family-2-4{fill:#4FBBBC;}
	.st1_family-2-4{opacity:0.32;fill:url(#SVGID_1_);enable-background:new    ;}
	.st2_family-2-4{opacity:0.32;fill:url(#SVGID_00000149350503380581893210000008123433433471941275_);enable-background:new    ;}
	.st3_family-2-4{opacity:0.32;fill:url(#SVGID_00000152222426306393544840000009451693949858689669_);enable-background:new    ;}
	.st4_family-2-4{opacity:0.32;fill:url(#SVGID_00000158731470389381753520000011933630714557718155_);enable-background:new    ;}
	.st5_family-2-4{fill:#FF9A22;}
	.st6_family-2-4{fill:#754C24;}
	.st7_family-2-4{fill:#297600;}
	.st8_family-2-4{fill:#5FAD00;}
	.st9_family-2-4{fill:#442827;}
	.st10_family-2-4{fill:#FDC2B0;}
	.st11_family-2-4{fill:none;}
	.st12_family-2-4{fill:#68E1FD;}
	.st13_family-2-4{opacity:0.21;fill:#442827;enable-background:new    ;}
	.st14_family-2-4{fill:#FFF7F0;}
</style>
<path id="Base_family-2-4" class="st0_family-2-4" d="M25,253.1l177-102.9c2.6-1.5,5.8-1.5,8.4,0L475,301.7c4,2.3,5.4,7.4,3.1,11.4&#10;&#9;c-0.7,1.3-1.8,2.3-3.1,3.1l-169.2,97.7c-8.5,4.9-18.9,4.9-27.3,0L25,267.6c-4-2.3-5.4-7.5-3-11.5C22.7,254.9,23.7,253.9,25,253.1z"/>
<g id="shadow_family-2-4">
	
		<linearGradient id="SVGID_1_-family-2-4" gradientUnits="userSpaceOnUse" x1="385.5388" y1="167.3614" x2="425.8688" y2="202.3114" gradientTransform="matrix(1 0 0 -1 0 502)">
		<stop offset="0" style="stop-color:#1A1A1A;stop-opacity:0"/>
		<stop offset="0.99" style="stop-color:#1A1A1A"/>
	</linearGradient>
	<polyline class="st1_family-2-4" points="411.4,299.4 365.2,325.9 387.5,346.6 423.4,324.4 440.1,313.8 429.9,306.4 &#9;"/>
	
		<linearGradient id="SVGID_00000033332174617982009140000007490328346831832483_-family-2-4" gradientUnits="userSpaceOnUse" x1="236.2994" y1="134.5707" x2="280.8294" y2="173.1707" gradientTransform="matrix(1 0 0 -1 0 502)">
		<stop offset="0" style="stop-color:#1A1A1A;stop-opacity:0"/>
		<stop offset="0.99" style="stop-color:#1A1A1A"/>
	</linearGradient>
	
		<polyline style="opacity:0.32;fill:url(#SVGID_00000033332174617982009140000007490328346831832483_);enable-background:new    ;" points="&#10;&#9;&#9;271.5,334.6 215.9,360.1 247.1,379.7 279.7,353.4 294.5,342 284.3,334.6 &#9;"/>
	
		<linearGradient id="SVGID_00000051376241946550818270000016434512884277192342_-family-2-4" gradientUnits="userSpaceOnUse" x1="196.7677" y1="241.8626" x2="249.3577" y2="287.4526" gradientTransform="matrix(1 0 0 -1 0 502)">
		<stop offset="0" style="stop-color:#1A1A1A;stop-opacity:0"/>
		<stop offset="0.99" style="stop-color:#1A1A1A"/>
	</linearGradient>
	
		<polyline style="opacity:0.32;fill:url(#SVGID_00000051376241946550818270000016434512884277192342_);enable-background:new    ;" points="&#10;&#9;&#9;210.1,219.8 167.6,245.7 212,273.7 255.1,247.8 270.5,235.9 232.6,226.9 &#9;"/>
	
		<linearGradient id="SVGID_00000132070413694238482790000009231269504196282805_-family-2-4" gradientUnits="userSpaceOnUse" x1="93.4227" y1="207.3069" x2="146.0227" y2="252.8969" gradientTransform="matrix(1 0 0 -1 0 502)">
		<stop offset="0" style="stop-color:#1A1A1A;stop-opacity:0"/>
		<stop offset="0.99" style="stop-color:#1A1A1A"/>
	</linearGradient>
	
		<polyline style="opacity:0.32;fill:url(#SVGID_00000132070413694238482790000009231269504196282805_);enable-background:new    ;" points="&#10;&#9;&#9;106.8,254.3 64.3,280.2 108.7,308.2 151.8,282.3 167.2,270.5 129.3,261.5 &#9;"/>
</g>
<g id="Plant_family-2-4">
	<polyline class="st5_family-2-4" points="406.7,289.1 406.7,309.8 440.1,309.8 440.1,289.1 &#9;"/>
	<ellipse class="st6_family-2-4" cx="423.4" cy="289.1" rx="16.7" ry="8.2"/>
	<ellipse class="st5_family-2-4" cx="423.4" cy="310.5" rx="16.7" ry="8.2"/>
	<path class="st7_family-2-4" d="M442.1,241.1c-3.5-1.4-8.4-6.2-12.7-6.1c-1.6,4-2.1,8.6-2.6,12.7c-0.8,7-1,14.1-0.5,21.2&#10;&#9;&#9;c0.1,1.6,0.2,3.1,0.4,4.7c0,0.5,0.2,0.9,0.4,1.3v16.4c0.1,0.3,0.4,0.4,0.6,0.4c0.2,0,0.3-0.2,0.4-0.4v-15.7&#10;&#9;&#9;c1.7-0.6,3.3-1.3,4.8-2.2c3.1-2,5.5-5,6.7-8.5c2.7-7.5,1-15.9,3.5-23.3C442.9,241.4,442.5,241.2,442.1,241.1z"/>
	<path class="st8_family-2-4" d="M434.9,228.8c-2,1.2-3.6,2.9-4.8,4.9c-0.3,0.5-0.5,0.9-0.8,1.4l-0.1,0.3l0,0c-0.3,0.8-0.6,1.7-0.8,2.6&#10;&#9;&#9;c0.4-0.7,1-1.2,1.8-1.4c0.9-0.4,1.9-0.5,2.8-0.2c0.9,0.3,1.8,0.8,2.6,1.4c1.2,0.7,2.3,1.5,3.5,2.3c5.5,3.5,12.9,3.9,17.2-1.2&#10;&#9;&#9;c0.1-0.2,0.1-0.4,0.1-0.6C457,234.6,447.1,221.7,434.9,228.8z"/>
	<path class="st7_family-2-4" d="M453.8,240.9c0.2-0.2,0.5-0.3,0.7-0.5c0-0.1,0-0.3-0.1-0.4c-3.4-3.4-6.9-6.8-11.5-8.5c-3.3-1.2-6.8-1.6-10.3-1&#10;&#9;&#9;c-0.4,0.4-0.7,0.9-1,1.3c3.7-1.2,8.4-0.5,11.8,1c4,1.7,7.3,4.8,10.3,7.9C453.7,240.9,453.7,240.9,453.8,240.9z"/>
	<path class="st7_family-2-4" d="M397.7,248.4c-4.9,2.6-7.9,7.8-7.5,13.4c0.4,9.9,16.6,0.2,21-8.1s5,3.5,5,3.5"/>
	<path class="st8_family-2-4" d="M412.3,245c-3-0.1-6.1,0.4-9,1.2c-2,0.5-3.8,1.2-5.6,2.2c1,0.7,2.1,1.3,3.2,1.7c2,0.8,4.2,1.8,5.2,3.8&#10;&#9;&#9;c0.3,0.5,0.5,1,0.6,1.5c1,3.2,0.1,7.2,1.5,10.4s4.1,6.1,7.9,6.4c4.6,0.3,6.7-4.1,7.6-7.9s2.1-9,0.7-12.9&#10;&#9;&#9;C422.8,246.8,416.6,245.2,412.3,245z"/>
	<path class="st7_family-2-4" d="M418.3,260.4c-1.9-6.2-6-12.1-12-14.9h-0.2l-0.3,0.1l-1.1,0.3c6.9,2.6,11.3,9.4,13.1,16.4&#10;&#9;&#9;c2.3,9,1.5,18.6,1.5,27.8c0,0.3,0.2,0.5,0.5,0.5s0.5-0.2,0.5-0.5C420.4,280.3,421.3,269.8,418.3,260.4z"/>
</g>
<g id="Mother_family-2-4">
	<path class="st9_family-2-4" d="M98.3,250.4c0,0-6.8-4.5-8.8-3.5c-5.9,3-8.2,17.5-6.7,24s11.5,9.3,14.5,7c3.7-2.9-2.6-9.6-2.6-9.6"/>
	<path class="st6_family-2-4" d="M133.3,236.1c0.9,1.2,10.5,36,10.8,41.5s-3.1,16-21.2,10.5s-32.7-21.5-32.7-21.5s-3.3-12,8.4-16.9l7.9,6.5&#10;&#9;&#9;c0,0-7-12.3-4.5-23.4c0,0,30.8-2.5,42.2-10.2c0,0,24.3,25.2,27.7,36.9c3.4,11.7-8.6,15.7-14.5,14.5s-20-10.8-20-10.8"/>
	<polygon class="st9_family-2-4" points="106.4,256.1 117.4,266.6 103.6,249.5 &#9;"/>
	<path class="st10_family-2-4" d="M124.5,224.4c0.9,0.1,5.6,10.2,6.1,10.9s5.2,5.4,7.5,6.4s13.3-0.9,14.1,1.5s-4.7,2-4.7,2s5.7,5,6.5,7.2&#10;&#9;&#9;s-1.1,7.2-2,7.4s-9.4-3.2-11.1-4.5c-1.8-1.8-3.5-3.8-5-5.9c0,0-19.3-3.7-25.7-10.9s1.8-19.8,1.8-19.8&#10;&#9;&#9;C115.5,221.7,119.8,223.7,124.5,224.4z"/>
	<path class="st10_family-2-4" d="M145.4,217.2c0,0,16.3,15.4,17.4,17.2s7.1,11.4,8.2,10.1s-1.3-5.8-1.3-5.8s9.6,7.6,11.2,5.9s0.1-8.8-1-10.8&#10;&#9;&#9;s-8.6-4.9-9.4-5.7s-18.3-21.8-18.3-21.8"/>
	<path class="st5_family-2-4" d="M115.2,180.7c6.4-2.6,13.3-3.6,20.2-2.9c3.4,0.3,6.5,1.7,9.1,3.9c3.3,3,4.6,7.6,6.4,11.6&#10;&#9;&#9;c2.7,5.7,5.7,11.3,9,16.6c3,5.1,5.6,10.4,9.4,15l-10.5,7.9L143,214.4l-23.6,12.2l21,10.7c1.8,3.2-13.5,13-13.5,13&#10;&#9;&#9;s-23.5-2.3-28.4-26C91.6,190.8,115.2,180.7,115.2,180.7z"/>
	<line class="st11_family-2-4" x1="194.3" y1="226.8" x2="192.3" y2="224.6"/>
	<path class="st5_family-2-4" d="M143.6,205.9c0,0,0.8,21.3-0.5,23.7s-23.7,12.1-23.7,12.1l-14.1-17.5L143.6,205.9z"/>
	<path class="st9_family-2-4" d="M135.7,168.7c0,0,2.9,9.1,1,12s-9.9-0.2-9.9-0.2"/>
	<path class="st10_family-2-4" d="M136.9,164.4c0,0-1.9,17.5-9.3,18.5s-10.1-8.3-10.1-8.3s0-12,2.6-14.1S133.8,159,136.9,164.4z"/>
	<path class="st9_family-2-4" d="M140,162.8c0,0-5.7,6.2-8.7,7.6s-6.2,0-7.5,2.3s0.6,16.7-3,18.9s-9.1-6.1-12.4-2.8s-2.6,10.4-7.2,11.4&#10;&#9;&#9;s-9-6.5-4.1-11.5s5.6-7.6,3.4-9.7c-3.3-3.1,1.6-12.5,6.1-13.9s6.8-10.8,14.6-12.2S139,157.1,140,162.8z"/>
	<path class="st9_family-2-4" d="M141.9,199.2c0.1,9.8,0,19.7-0.3,29.6c0,1.1,1.7,1.1,1.7,0c0.3-9.8,0.4-19.7,0.3-29.5c0-0.5-0.4-0.9-0.9-0.9&#10;&#9;&#9;C142.3,198.3,141.9,198.7,141.9,199.2z"/>
	<path class="st9_family-2-4" d="M140,236.7c-11.4-5.1-19.8-15.2-22.6-27.4c-0.2-1.1-1.9-0.6-1.7,0.5c2.9,12.6,11.5,23.2,23.4,28.5&#10;&#9;&#9;C140.2,238.7,141,237.2,140,236.7z"/>
</g>
<g id="Father_family-2-4">
	<path class="st9_family-2-4" d="M199.3,217.1c0,0-6.8-4.5-8.9-3.5c-5.9,3-8.2,17.5-6.7,24s11.5,9.3,14.5,7c3.6-2.9-2.6-9.6-2.6-9.6"/>
	<path class="st9_family-2-4" d="M234.2,202.8c0.9,1.2,10.5,36,10.8,41.6s-3.1,16-21.2,10.5S191,233.3,191,233.3s-3.3-12,8.4-16.9l7.9,6.5&#10;&#9;&#9;c0,0-7-12.3-4.5-23.4c0,0,30.8-2.5,42.2-10.1c0,0,24.3,25.2,27.7,36.9s-8.6,15.7-14.5,14.5s-20-10.8-20-10.8"/>
	<polygon class="st9_family-2-4" points="207.3,222.8 218.4,233.4 204.5,216.3 &#9;"/>
	<path class="st10_family-2-4" d="M256.9,156.8l4.5,6.5c0,0,18.6-7,20.2-8.4s4.5-9.4,6.2-9.7s0,7.2,0,7.2s7.5-4.7,9.7-5s5.7,0.7,6.2,2.1&#10;&#9;&#9;s-3.9,7.9-5.7,8.9s-8.9,2.8-8.9,2.8s-20.9,15.2-30.5,16.6s-15.4-17.2-15.4-17.2L256.9,156.8z"/>
	<path class="st12_family-2-4 targetColor" d="M247.2,134.2c0,0,12.1,8.6,12,23.6c0,3-17.2,7.2-17.2,7.2l-1.5-16.9" style="fill: rgb(223, 155, 255);"/>
	<path class="st13_family-2-4" d="M247.2,134.2c0,0,12.1,8.6,12,23.6c0,3-17.2,7.2-17.2,7.2l-1.5-16.9"/>
	<path class="st12_family-2-4 targetColor" d="M205.7,179.3c0,0-6.6-0.5-15.5-10.3c0,0,4.7-14.6,15.6-23.6s26.2-16,37.5-12.8s-1.9,40.1-1.6,43.1&#10;&#9;&#9;s4.7,20.1,4.7,20.1s-27.2,10.8-44,8.2L205.7,179.3z" style="fill: rgb(223, 155, 255);"/>
	<path class="st10_family-2-4" d="M206.3,177.3c1,0.1-4,7.7-3.5,8.5s15.7,11.1,18.2,12.2s14.7-2.6,15.7,0s-5.1,2.2-5.1,2.2s6.2,5.5,7.2,7.9&#10;&#9;&#9;s-1.2,8-2.2,8.1s-10.4-3.5-12.2-5s-5.5-6.4-5.5-6.4s-21.2-4.1-28.2-12s2-21.7,2-21.7C196.5,174.4,201.2,176.5,206.3,177.3z"/>
	<path class="st9_family-2-4" d="M253.3,128.7c0,0,4.4,0.1,5.7-3.4s-2.9-6.9-2.9-6.9s1-6-7-9.6s-12.7,0.9-12.7,0.9s-5.7-1.1-8.9,2.8&#10;&#9;&#9;s-3.8,7.5-2.8,10.3c-1.1,1.8-1.2,3.9-0.4,5.8c1.4,3.3,4,9.7,9.7,9.7"/>
	<path class="st10_family-2-4" d="M254.5,125c0,0-6.5,16.3-9.9,18c-5.5,2.7-11.5,1.3-12.9-4.6c0,0-5.5-6.4-2.6-9.4s5.5,1.3,5.5,1.3&#10;&#9;&#9;s3.3-10.3,11.6-10.1S254.5,125,254.5,125z"/>
	<path class="st9_family-2-4" d="M254.3,125c0,0-0.1,1.3-5.2-1.7s-12.8,6.1-14.3,11.8c0,0-1.7-9.3,0.9-13.4s5.2-6.1,10.2-5.2&#10;&#9;&#9;S255.5,120.3,254.3,125z"/>
</g>
<g id="Toddler_family-2-4">
	<path class="st10_family-2-4" d="M298.6,260l4.3-8.2c0,0,6-2.8,4.8-5.6s-8.2-3.5-10.5-2.1s-1,6.6-1,6.6c-6.2,5.2-12.8,18.5-12.8,18.5"/>
	<path class="st10_family-2-4" d="M265.2,270.8c0,0-0.6-8.3,0-13.3c0,0,3.3-7.9,1.8-10.6c-1.3-2.2-3.8-3.4-6.3-2.9c-2,0.2-5.2,3.8-5.4,6.8&#10;&#9;&#9;s2.5,5.8,2.5,5.8c-1.5,5.2-1.3,10.8,0.6,15.9c0.2,0.6,0.5,1.2,0.8,1.8C263.3,282.9,265.2,270.8,265.2,270.8z"/>
	<path class="st9_family-2-4" d="M265.6,342.5c-0.2,1.7,0,3.5,0.8,5c1.3,2,7.6,5.8,13.2,3.5s-3-7.6-6.3-9.6"/>
	<path class="st9_family-2-4" d="M287.8,334.3c0.2,1.7,1,3.3,2.2,4.6c1.8,1.6,8.9,3.4,13.6-0.3s-5-6.5-8.7-7.5"/>
	<path class="st10_family-2-4" d="M265,316.7c0.6,3.6,1.1,7.2,1.3,10.8c0,3-0.7,15-0.7,15s2.1,1.1,7.7-1.1c0,0,3.8-8.9,3.5-13&#10;&#9;&#9;s-1.6-13.4-1.6-13.4"/>
	<path class="st10_family-2-4" d="M280.2,309.7c1.6,3.3,3,6.6,4.2,10c0.8,2.9,3.5,14.6,3.5,14.6s2.4,0.5,7.1-3.2c0,0-1-14.9-2.5-18.8&#10;&#9;&#9;s-3.1-7.1-3.1-7.1"/>
	<path class="st9_family-2-4" d="M265.6,297.4c0,0-3.8,5.2-2,21c0,0,3.5,3.4,14.2,1.4V314l2.1,6.3c4.8-1.2,9.4-3.3,13.5-6.1c0,0,0-5.5-4.5-12.3&#10;&#9;&#9;C284.4,295.2,265.6,297.4,265.6,297.4z"/>
	<path class="st12_family-2-4 targetColor" d="M288.5,270.8c0,0,7.6-8.1,9.4-3.2l-9.4,17.1" style="fill: rgb(223, 155, 255);"/>
	<path class="st12_family-2-4 targetColor" d="M271.7,270.9c-2.3-2.3-4.5-4.6-6.5-7.1c-2.7,2.6-5,5.5-6.9,8.7c0,0,0.2,5.5,6.9,13.8" style="fill: rgb(223, 155, 255);"/>
	<path class="st12_family-2-4 targetColor" d="M271.7,270.9c-3.4,2.2-5.6,5.8-6.1,9.8c-0.9,6.8,0,16.7,0,16.7s10.6,11.5,23.2,4.5c0,0,4-23-1.4-27.6&#10;&#9;&#9;S271.7,270.9,271.7,270.9z" style="fill: rgb(223, 155, 255);"/>
	<path class="st9_family-2-4" d="M268.9,258.5c0,0-5,11.2,8.5,15.2s6.4-15.2,6.4-15.2"/>
	<path class="st10_family-2-4" d="M292.4,256.4c-0.1,1.2,2.1,21.9-8.6,19.9s-9.5-10.5-9.2-13.7s4-8.8,9.7-8.9S292.4,256.4,292.4,256.4z"/>
	<path class="st12_family-2-4 targetColor" d="M274.4,264.3c0,0,11.3,7.1,26.5,0c0,0,5.5-1.9-7.4-8.4c0,0,0.7-10.4-13.6-10.4c-12.7,0-12,12.9-12,12.9&#10;&#9;&#9;L274.4,264.3z" style="fill: rgb(223, 155, 255);"/>
</g>
<g id="Wall_Photo_family-2-4">
	<path class="st12_family-2-4 targetColor" d="M364.9,163.7c5.3-1,10.7,0.9,14.2,5c4.8,5.3,6.9,12.5,10.3,18.6c2.8,5,7.8,10.7,13.4,12.4l0.5-28.2&#10;&#9;&#9;c-2.9,1.6-6.3,1.9-9.4,0.7c-10.2-3.8-7.7-19-18-22.2c-11-3.4-14.4,11-25,10.6c-2.8-0.1-5.5-1-7.8-2.6l-0.2,11.2&#10;&#9;&#9;C349.6,172.6,357.2,165,364.9,163.7z" style="fill: rgb(223, 155, 255);"/>
	<path class="st12_family-2-4 targetColor" d="M382.2,182.2c-2.2-4.6-4.6-10.9-9.4-13.5c-7.2-3.9-13.6,2.1-19.9,4.7c-3.2,1.4-6.7,1.6-10,0.4l-0.1,3.5&#10;&#9;&#9;c0,1.9,1,3.7,2.8,4.6l51.5,25.7c1.9,0.9,4.2,0.2,5.1-1.7c0.3-0.5,0.4-1.1,0.4-1.6v-0.2C393.7,201.7,386.2,190.6,382.2,182.2z" style="fill: rgb(223, 155, 255);"/>
	<path class="st12_family-2-4 targetColor" d="M351,156.4c5.2,0.2,7.6-3.9,10.9-6.9c3.6-3.4,8.6-4.8,13.4-3.9c6.1,1.1,9.7,5.4,12.1,10.9&#10;&#9;&#9;c2.2,5,2.9,9.6,8.7,11.1c2.5,0.8,5.2,0.3,7.3-1.2l0.4-22.8c0-1.9-1-3.7-2.8-4.6l-51.1-26c-2-1-4.5-0.2-5.6,1.8&#10;&#9;&#9;c-0.3,0.6-0.4,1.2-0.4,1.8l-0.6,36C345.2,154.9,348,156.3,351,156.4z" style="fill: rgb(223, 155, 255);"/>
	<path class="st14_family-2-4" d="M375.9,150c10.3,3.2,7.8,18.5,18,22.2c3.1,1.2,6.5,0.9,9.4-0.7l0.1-5.1c-2.1,1.5-4.8,2-7.3,1.2&#10;&#9;&#9;c-5.8-1.5-6.5-6.1-8.7-11.1c-2.4-5.5-6-9.8-12.1-10.9c-4.8-0.9-9.8,0.6-13.4,3.9c-3.4,3-5.7,7.1-10.9,6.9c-3-0.1-5.8-1.5-7.7-3.8&#10;&#9;&#9;l-0.1,5.3c2.3,1.6,5,2.5,7.8,2.6C361.5,160.9,365,146.5,375.9,150z"/>
	<path class="st14_family-2-4" d="M389.4,187.3c-3.4-6.1-5.6-13.3-10.3-18.6c-3.5-4.1-8.9-6-14.2-5c-7.7,1.3-15.3,8.9-21.9,5.5l-0.1,4.7&#10;&#9;&#9;c3.3,1.1,6.8,1,10-0.4c6.3-2.6,12.7-8.6,19.9-4.7c4.8,2.6,7.2,8.8,9.4,13.5c4,8.4,11.4,19.5,20.5,21.9l0.1-4.4&#10;&#9;&#9;C397.2,197.9,392.2,192.3,389.4,187.3z"/>
</g>
</svg>