<svg id="_0475_online_storage" xmlns="http://www.w3.org/2000/svg" viewBox="0 0 500 500" data-imageid="data-storage-3-37" imageName="Data Storage 3" class="illustrations_image" style="width: 151px;"><defs><style>.cls-1_data-storage-3-37{opacity:.04;}.cls-1_data-storage-3-37,.cls-2_data-storage-3-37,.cls-3_data-storage-3-37{fill:#000001;}.cls-4_data-storage-3-37,.cls-5_data-storage-3-37,.cls-6_data-storage-3-37{fill:#fff;}.cls-7_data-storage-3-37{fill:#f4a28c;}.cls-5_data-storage-3-37{opacity:.38;}.cls-8_data-storage-3-37{opacity:.7;}.cls-8_data-storage-3-37,.cls-9_data-storage-3-37{fill:none;}.cls-10_data-storage-3-37{fill:#e6e6e6;}.cls-9_data-storage-3-37{opacity:.03;}.cls-11_data-storage-3-37{fill:#ce8172;opacity:.31;}.cls-12_data-storage-3-37{opacity:.58;}.cls-12_data-storage-3-37,.cls-13_data-storage-3-37,.cls-14_data-storage-3-37{fill:#68e1fd;}.cls-6_data-storage-3-37{opacity:.46;}.cls-15_data-storage-3-37{fill:#24285b;}.cls-2_data-storage-3-37{opacity:.08;}.cls-13_data-storage-3-37{opacity:.73;}.cls-16_data-storage-3-37{fill:#ffd200;}</style></defs><g id="sd_data-storage-3-37" class="cls-9_data-storage-3-37"><ellipse class="cls-3_data-storage-3-37" cx="231.18" cy="431.79" rx="191.44" ry="23.52"/></g><g id="plant_data-storage-3-37"><path class="cls-12_data-storage-3-37 targetColor" d="m380.05,411.81s14.15-3.86,17.23-17.03c0,0-21.92-4.43-22.55,18.2l5.32-1.16Z" style="fill: rgb(104, 225, 253);"/><path class="cls-13_data-storage-3-37 targetColor" d="m378.31,410.41s9.89-15.63,1.19-30.24c0,0-16.67,10.59-9.26,30.27l8.08-.03Z" style="fill: rgb(104, 225, 253);"/><path class="cls-14_data-storage-3-37 targetColor" d="m375.77,410.42s-5.22-16.5-21.01-19.63c0,0-2.96,10.72,10.22,19.68l10.79-.05Z" style="fill: rgb(104, 225, 253);"/><polygon class="cls-15_data-storage-3-37" points="386.03 410.05 383.16 429.67 365.1 429.75 362.43 410.15 386.03 410.05"/></g><g id="data_data-storage-3-37"><path class="cls-10_data-storage-3-37" d="m479.84,247.25c.3,16.63-4.24,32.6-12.6,45.78-12.51,19.75-33.59,33.24-59.82,33.29-40.81.09-81.62.14-122.42.16h-11.51c-16.59.02-33.22.02-49.81,0h-1.98c-26.32-.02-52.62-.05-78.93-.14-13.84-.02-27.68-.07-41.51-.12-33.31-.14-57.4-16.79-72.72-46.03-7.66-14.6-10.22-30.08-8.65-44.94,1.92-18.14,10.03-35.37,22.54-48.93,10.18-11.03,23.28-19.63,38.37-24.32,5.52-1.73,6.41-6.51,7.98-10.98,8.35-23.56,27.69-38.74,50.74-40.23,5.17-.34,10.52.02,15.97,1.11,9.58,1.92,13.78-.95,18.92-8.24,2.81-4.01,5.79-7.8,8.93-11.42,41.92-48.45,111.18-61.99,167.8-30.82,22.42,12.36,39.45,28.45,51.33,47.99,9.51,15.57,15.74,33.32,18.85,53.13.32,1.96.6,3.94.85,5.93.62,4.96.16,10.45,6.42,12.66,24.73,8.68,45.89,30.82,50.37,56.94.11.6.21,1.22.28,1.84.35,2.42.55,4.85.58,7.34Z"/><polygon class="cls-2_data-storage-3-37" points="307.42 194.69 285 194.69 285 326.48 221.71 326.48 221.71 194.69 199.27 194.69 253.35 148.09 307.42 194.69"/><path class="cls-1_data-storage-3-37" d="m89.7,186.32v48.93H19.89c1.92-18.14,10.03-35.37,22.54-48.93h47.27Z"/><path class="cls-1_data-storage-3-37" d="m216.01,92.24v53.15h-76.48v-34.59c5.17-.34,10.52.02,15.97,1.11,9.58,1.92,13.78-.95,18.92-8.24,2.81-4.01,5.79-7.8,8.93-11.42h32.65Z"/><path class="cls-1_data-storage-3-37" d="m421.33,162.54h-79.64v-53.13h60.79c9.51,15.57,15.74,33.32,18.85,53.13Z"/><path class="cls-1_data-storage-3-37" d="m479.84,247.25c.3,16.63-4.24,32.6-12.6,45.78h-71.47v-53.13h83.49c.35,2.42.55,4.85.58,7.34Z"/><polygon class="cls-14_data-storage-3-37 targetColor" points="435.79 157.31 331.64 157.31 334.7 83.58 438.85 83.58 435.79 157.31" style="fill: rgb(104, 225, 253);"/><g class="cls-8_data-storage-3-37"><rect class="cls-5_data-storage-3-37" x="352.6" y="101.21" width="59.24" height="39.42"/><polygon class="cls-4_data-storage-3-37" points="419.37 106.89 417.46 100.21 391.22 100.21 386.33 106.89 362.88 106.89 355.35 140.68 414.59 140.68 422.13 106.89 419.37 106.89"/><polygon class="cls-10_data-storage-3-37" points="382.92 115.14 367.83 115.14 368.83 113.59 383.92 113.59 382.92 115.14"/></g><rect class="cls-14_data-storage-3-37 targetColor" x="135.17" y="86.04" width="73.88" height="55.12" style="fill: rgb(104, 225, 253);"/><polygon class="cls-6_data-storage-3-37" points="162.86 127.96 162.86 99.23 189.53 113.59 162.86 127.96"/><rect class="cls-14_data-storage-3-37 targetColor" x="12.27" y="177.2" width="71.42" height="53.28" style="fill: rgb(104, 225, 253);"/><path class="cls-6_data-storage-3-37" d="m55.07,188.61c-5.17-3.92-9.84-1.83-9.84-1.83v24.28c-2.25-.6-5.84-.91-9.5,1.48-6,3.92-5.17,8.75-.75,9.42,4.1.62,14.92-.42,12.59-10v-19.24c1.46.43,4.19,1.24,7.5,2.24,5,1.5,8-2.83,8-2.83,0,0-2.83.42-8-3.5Z"/><polygon class="cls-14_data-storage-3-37 targetColor" points="487.73 292.17 393.12 288.62 393.12 222.08 487.73 225.64 487.73 292.17" style="fill: rgb(104, 225, 253);"/><path class="cls-6_data-storage-3-37" d="m472.74,255.9c0-11.41-13.22-20.65-29.54-20.65s-29.54,9.25-29.54,20.65,13.22,20.65,29.54,20.65c3.47,0,6.79-.44,9.89-1.21l.17,8.33,10.5-12.96c5.53-3.75,8.98-9,8.98-14.81Z"/><circle class="cls-14_data-storage-3-37 targetColor" cx="426.75" cy="255.9" r="4.13" style="fill: rgb(104, 225, 253);"/><circle class="cls-14_data-storage-3-37 targetColor" cx="443.2" cy="255.9" r="4.13" style="fill: rgb(104, 225, 253);"/><circle class="cls-14_data-storage-3-37 targetColor" cx="459.65" cy="255.9" r="4.13" style="fill: rgb(104, 225, 253);"/><rect class="cls-1_data-storage-3-37" x="132.8" y="177.2" width="45.06" height="21.49"/><rect class="cls-14_data-storage-3-37 targetColor" x="127.05" y="175.57" width="45.06" height="21.49" style="fill: rgb(104, 225, 253);"/><rect class="cls-1_data-storage-3-37" x="329.13" y="232.97" width="31.08" height="21.08"/><rect class="cls-14_data-storage-3-37 targetColor" x="325.08" y="229.15" width="31.08" height="21.08" style="fill: rgb(104, 225, 253);"/><rect class="cls-1_data-storage-3-37" x="270.1" y="76.77" width="26.33" height="26.33"/><rect class="cls-14_data-storage-3-37 targetColor" x="267.7" y="72.87" width="26.33" height="26.33" style="fill: rgb(104, 225, 253);"/><path class="cls-1_data-storage-3-37" d="m320.27,315.39c-1.05,3.75-2.27,7.45-3.68,11.08-20.96.02-41.97.02-62.94,0h-2.5c-33.25-.02-66.49-.07-99.74-.18-5.42-12.07-2.97-27.14.98-39.25,4.62-14.12,3.57-28.08,4.24-42.84.25-5.15.62-10.53,3.19-15.03,1.74-3.05,4.99-6.07,8.63-6.02,4.34.06,8.3-.46,12.51-1.87,1.57-.53,3.42-1.11,4.78-.17,1.13.78,1.42,2.4,1,3.71-.42,1.31-1.42,2.34-2.48,3.22-.72.6-1.51,1.19-1.93,2.03-.39.81-.38,1.74-.37,2.64.05,2.87.1,5.74.15,8.61.04,2.29-.03,4.86-1.68,6.44-.78.75-1.86,1.21-2.4,2.15-.43.75-.42,1.66-.38,2.52.12,2.9.42,5.79.91,8.65.14.81.31,1.66.82,2.31.56.72,1.44,1.09,2.29,1.44,3.14,1.28,6.27,2.56,9.41,3.84,10.07,4.11,20.77,8.72,26.7,17.84,3.7,5.69,5.1,12.51,7.23,18.95,1.72,5.2,4.12,10.53,8.31,14.22,4.75,4.18,11.76,5.04,17.83,4.22,7.32-.96,14.68-4.46,20.74-8.81,10.57-7.61,19.34-17.8,30.98-23.62,2.48-1.23,5.15-2.27,7.92-2.12,5.33.29,9.57,5.09,10.82,10.28,1.25,5.2.11,10.64-1.34,15.77Z"/></g><g id="person_data-storage-3-37"><path class="cls-14_data-storage-3-37 targetColor" d="m185.18,266.29s37.15,13.82,42.19,38.5c5.04,24.68,33.24,63.96,73.02-12.6l13.09,5.05s-36.26,122.88-100.22,62.95c-63.96-59.93-28.09-93.9-28.09-93.9Z" style="fill: rgb(104, 225, 253);"/><path class="cls-6_data-storage-3-37" d="m185.18,266.29s37.15,13.82,42.19,38.5c5.04,24.68,33.24,63.96,73.02-12.6l13.09,5.05s-36.26,122.88-100.22,62.95c-63.96-59.93-28.09-93.9-28.09-93.9Z"/><path class="cls-14_data-storage-3-37 targetColor" d="m119.59,260.85s40.1-15.61,77.15,12.76c37.04,28.37-10.93,128.52-10.93,128.52l-69.33,2.31s-90.97-83.21,3.12-143.59Z" style="fill: rgb(104, 225, 253);"/><path class="cls-2_data-storage-3-37" d="m137.33,272.17s25.25,39.86-.62,64.35c-36.7,34.75,6.15,37.7,49.02,38.95l-44.73,34.05-55.95-30.74,6.32-40.16,45.96-66.45Z"/><path class="cls-15_data-storage-3-37" d="m175.42,398.62c-26.62.89-33.47-1.1-58.07-11.32-14.92-6.2-32.64-10.6-46.19-4.99-28.7,11.88-5.81,58.52,67.83,47.24l68-3.08s26.09,0,30.71-9.36c5.63-11.42-6.16-23.28-60.49-18.56l-1.79.06Z"/><path class="cls-7_data-storage-3-37" d="m175.77,224.59s.46,9.64-1.4,15.97c-.76,2.57-3.49,4.05-6.05,3.26-3.17-.98-7.18-3.24-8.05-8.37l-2.56-8.53s-1.42-5.4,4.17-9.1c5.59-3.7,13.9.89,13.89,6.78Z"/><polygon class="cls-7_data-storage-3-37" points="158.17 228.46 152 259.48 169.34 261.66 166.86 238.21 158.17 228.46"/><path class="cls-15_data-storage-3-37" d="m173.36,224.9c-1.69.02-4.78-.11-8.86-1.03,0,0,2.85,4.31-.34,8.82-3.19,4.51-8.01,2.31-8.01,2.31l.64-12.38c.07-3.61,2.1-6.91,5.31-8.57,1.31-.68,2.76-1.34,4.21-1.86,3.62-1.29,8.75,1.29,12.04-1,1.44-1,3.44-.08,3.63,1.67.41,3.79-.49,9.69-5.67,11.56-.95.34-1.95.46-2.96.48Z"/><path class="cls-7_data-storage-3-37" d="m165.2,232.45s.07-3.71-2.73-3.54c-2.8.18-2.94,5.55.84,6.19l1.89-2.66Z"/><path class="cls-7_data-storage-3-37" d="m175.75,230.68l2.54,3.82c.63.94.06,2.22-1.06,2.39l-3.71.55,2.23-6.76Z"/><path class="cls-7_data-storage-3-37" d="m144.64,381.48s21.11-3.16,20.44,9.77l-19.44,1.67-1.01-11.43Z"/><path class="cls-11_data-storage-3-37" d="m167.63,243.32s-3.19-.78-5.51-3.58c0,0,.03,5.79,6.15,11.74l-.64-8.16Z"/><polygon class="cls-16_data-storage-3-37" points="206.55 397.64 223 348.1 163.91 348.1 156.15 392.2 133.69 393.72 133.69 399.47 206.55 397.64"/><circle class="cls-4_data-storage-3-37" cx="189.42" cy="371.27" r="6.71"/><path class="cls-7_data-storage-3-37" d="m300.39,292.19s4.56-14.21,12.41-18.36c1.05-.55,2.27.38,2.04,1.54l-1.36,6.92s10.24,6.71,0,14.94l-13.09-5.05Z"/><path class="cls-14_data-storage-3-37 targetColor" d="m125.49,420.55s25.32,3.42,19.21,9.28c-6.11,5.86-21.08,1.48-21.08,1.48l1.87-10.75Z" style="fill: rgb(104, 225, 253);"/><path class="cls-14_data-storage-3-37 targetColor" d="m168.78,428.05l-5.2-7.85s-16.04,10.91-14.5,15.78c3.07,9.74,19.71-7.93,19.71-7.93Z" style="fill: rgb(104, 225, 253);"/><path class="cls-14_data-storage-3-37 targetColor" d="m139.22,280.21c0-12.62-12.73-21.45-24.61-17.19-12.87,4.62-29.13,13.75-39.84,31.7-20.14,33.74-55.59,123.74,70.88,98.19l-1.16-13.18s-49.28,5.2-53.96-16.99c-4.03-19.11,48.68-40.89,48.69-82.53Z" style="fill: rgb(104, 225, 253);"/><path class="cls-6_data-storage-3-37" d="m139.22,280.21c0-12.62-12.73-21.45-24.61-17.19-12.87,4.62-29.13,13.75-39.84,31.7-20.14,33.74-55.59,123.74,70.88,98.19l-1.16-13.18s-49.28,5.2-53.96-16.99c-4.03-19.11,48.68-40.89,48.69-82.53Z"/></g></svg>