<svg version="1.1" id="Layer_1" xmlns="http://www.w3.org/2000/svg" xmlns:xlink="http://www.w3.org/1999/xlink" x="0px" y="0px" viewBox="0 0 500 500" style="width: 151px;" xml:space="preserve" data-imageid="biker-12" imageName="Biker" class="illustrations_image">
<style type="text/css">
	.st0_biker-12{fill:#E5E5E5;}
	.st1_biker-12{fill:#5DB256;}
	.st2_biker-12{opacity:0.68;fill:url(#SVGID_1_);enable-background:new    ;}
	.st3_biker-12{opacity:0.68;fill:url(#SVGID_00000023971607115871031680000000025947209485747379_);enable-background:new    ;}
	.st4_biker-12{opacity:0.68;fill:url(#SVGID_00000028298520424773526560000005664070410799036809_);enable-background:new    ;}
	.st5_biker-12{fill:#A46900;}
	.st6_biker-12{fill:#653916;}
	.st7_biker-12{fill:#26721E;}
	.st8_biker-12{fill:#145B0A;}
	.st9_biker-12{fill:#68E1FD;}
	.st10_biker-12{fill:#F3A984;}
	.st11_biker-12{fill:#080100;}
	.st12_biker-12{opacity:0.39;fill:#080100;enable-background:new    ;}
</style>
<path id="Road_biker-12" class="st0_biker-12" d="M257,400.7l209.7-119.5c6.9-4,9.2-12.7,5.3-19.6c-1.2-2.1-3-3.9-5.1-5.2L275.4,143.9&#10;&#9;c-8.9-5.2-19.9-5.3-28.9-0.1l-215,124.1c-6.6,3.8-8.8,12.2-5.1,18.7c1.2,2.2,3.1,4,5.2,5.2l196.3,109C237,405.9,248,405.8,257,400.7&#10;&#9;z"/>
<g id="Grass_biker-12">
	<path class="st1_biker-12" d="M432.1,300.9c-2.1,1.2-226.5-134.7-226.5-134.7l42.1-23.4c8.2-4.6,18.3-4.4,26.4,0.3l195.1,114.5&#10;&#9;&#9;c6.1,3.6,8.1,11.4,4.5,17.5c-1.1,1.9-2.7,3.5-4.7,4.6L432.1,300.9z"/>
	<path class="st1_biker-12" d="M84.8,237.1c3.8-2.3,226.6,132.5,226.6,132.5l-54.9,31.3c-8.7,5-19.4,5-28.2,0.1L28.5,290&#10;&#9;&#9;c-5.6-3.1-7.6-10.2-4.5-15.8c1-1.8,2.5-3.4,4.4-4.4L84.8,237.1z"/>
</g>
<g id="Shadowv_biker-12">
	
		<linearGradient id="SVGID_1_-biker-12" gradientUnits="userSpaceOnUse" x1="81.2568" y1="-2276.2854" x2="113.1568" y2="-2323.4954" gradientTransform="matrix(1 0 0 1 0 2588.55)">
		<stop offset="0" style="stop-color:#080100;stop-opacity:0"/>
		<stop offset="1" style="stop-color:#26721E"/>
	</linearGradient>
	<path class="st2_biker-12" d="M100.4,330l8.2-40l-13.2-6.7l-40.4,21.5C63.3,309.8,92.3,324.7,100.4,330z"/>
	
		<linearGradient id="SVGID_00000144309146272646345570000009940631180953486518_-biker-12" gradientUnits="userSpaceOnUse" x1="383.6333" y1="-2321.4846" x2="407.9433" y2="-2357.4446" gradientTransform="matrix(1 0 0 1 0 2588.55)">
		<stop offset="0" style="stop-color:#080100;stop-opacity:0"/>
		<stop offset="1" style="stop-color:#26721E"/>
	</linearGradient>
	<path style="opacity:0.68;fill:url(#SVGID_00000144309146272646345570000009940631180953486518_);enable-background:new    ;" d="&#10;&#9;&#9;M398.8,282.1l6.2-31.6l-8.9-5l-33.6,15.1C369.2,264.6,392.4,278,398.8,282.1z"/>
	
		<linearGradient id="SVGID_00000115486722413951477560000012144613145129969326_-biker-12" gradientUnits="userSpaceOnUse" x1="244.4708" y1="-2293.7571" x2="284.5508" y2="-2361.707" gradientTransform="matrix(1 0 0 1 0 2588.55)">
		<stop offset="0" style="stop-color:#080100;stop-opacity:0"/>
		<stop offset="1" style="stop-color:#4D4D4D"/>
	</linearGradient>
	<path style="opacity:0.68;fill:url(#SVGID_00000115486722413951477560000012144613145129969326_);enable-background:new    ;" d="&#10;&#9;&#9;M300.6,349.9l26.4-35.2l-107.7-61.7L167,266.2C175.3,271.3,289,342.7,300.6,349.9z"/>
</g>
<g id="Treesa_biker-12">
	<path class="st5_biker-12" d="M108.6,290v-76.6H93.6v76.8C98.7,292.8,104.4,293.2,108.6,290z"/>
	<path class="st6_biker-12" d="M102.1,213.5v78.8c2.4,0,4.7-0.8,6.6-2.3v-76.5H102.1z"/>
	<path class="st7_biker-12" d="M102.5,119.5c0,0-44.2,28.4-41.4,38.1s23.6,8.6,23.6,8.6s-29.1,5.9-29.8,24.2c-0.5,13.1,32.6,15.8,32.6,15.8&#10;&#9;&#9;s-39.4,14-33.5,28.5s85,11.6,87.5,4.2s-2.9-26.4-26.8-32.7c0,0,30.3,0.2,30.4-14.6c0-13.5-33.2-25.3-33.2-25.3s26.8,3.3,28.9-4.1&#10;&#9;&#9;S102.5,119.5,102.5,119.5z"/>
	<path class="st8_biker-12" d="M145.1,191.3c0-13.5-33.2-25.3-33.2-25.3s26.8,3.3,28.9-4.1c1.8-6.4-28.2-33.7-36.2-40.8&#10;&#9;&#9;c2.9,8.5,8.9,16.4,13.8,23.5c2.6,3.8,5.9,8.4,1.6,12.2c-3.3,2.9-8,2.1-11.7,3.8c-1.8,0.8-2.9,0.7-2.4,3.3c0.6,1.3,1.5,2.5,2.6,3.4&#10;&#9;&#9;c2.4,2,5,3.7,7.7,5.1c6.1,3.7,20.6,11.2,14.1,20.3c-2.6,3.7-7.3,4.3-11.5,5.1c-3.4,0.7-7.4,1.1-7.9,5.2c-0.5,4.7,4.2,8.5,7.4,11.1&#10;&#9;&#9;c5.3,4.5,10,9.1,10.2,16.5c0,4.5-1.2,8.9-3.6,12.8c9.2-1.1,15.8-2.8,16.5-4.8c2.5-7.4-2.9-26.4-26.8-32.7&#10;&#9;&#9;C114.7,205.9,145,206.1,145.1,191.3z"/>
	<path class="st6_biker-12" d="M93.6,244.7v6.3c5.1-1.8,10.2-3.9,15.1-6.3H93.6z"/>
	<path class="st5_biker-12" d="M405.1,250.5v-49.3h-9.7v49.5C398.6,252.3,402.3,252.6,405.1,250.5z"/>
	<path class="st6_biker-12" d="M400.8,201.2v50.7c1.5,0,3.1-0.5,4.3-1.4v-49.3L400.8,201.2z"/>
	<path class="st7_biker-12" d="M401.1,140.6c0,0-28.5,18.3-26.7,24.6s15.2,5.5,15.2,5.5s-18.7,3.8-19.2,15.6c-0.4,8.4,21,10.1,21,10.1&#10;&#9;&#9;s-25.4,9.1-21.6,18.4s54.8,7.5,56.4,2.7s-1.8-17-17.2-21.1c0,0,19.6,0.1,19.6-9.4c0-8.7-21.4-16.3-21.4-16.3s17.2,2.1,18.6-2.6&#10;&#9;&#9;S401.1,140.6,401.1,140.6z"/>
	<path class="st8_biker-12" d="M428.5,186.9c0-8.7-21.4-16.3-21.4-16.3s17.2,2.1,18.6-2.7c1.2-4.1-18.2-21.7-23.3-26.3&#10;&#9;&#9;c1.8,5.5,5.7,10.6,8.9,15.2c1.6,2.4,3.8,5.4,1,7.8c-2.1,1.9-5.1,1.4-7.5,2.4c-1.2,0.5-1.9,0.4-1.5,2.1c0.4,0.8,0.9,1.6,1.7,2.2&#10;&#9;&#9;c1.5,1.3,3.2,2.4,5,3.3c4,2.4,13.3,7.2,9.1,13.1c-1.7,2.4-4.7,2.8-7.4,3.3c-2.2,0.4-4.8,0.7-5.1,3.4c-0.3,3,2.7,5.5,4.7,7.2&#10;&#9;&#9;c3.5,2.9,6.5,5.8,6.6,10.7c0,2.9-0.8,5.8-2.3,8.2c6-0.7,10.2-1.8,10.6-3.1c1.6-4.8-1.8-17-17.2-21.1&#10;&#9;&#9;C408.9,196.3,428.5,196.4,428.5,186.9z"/>
	<path class="st6_biker-12" d="M395.4,221.3v4.1c3.3-1.2,6.6-2.5,9.7-4.1H395.4z"/>
</g>
<g id="Cyclist_biker-12">
	<path class="st9_biker-12 targetColor" d="M237.3,261.8v-0.7c0.1,0,0.3-0.1,0.3-0.2c2.6-4.2-15.7-47.8-22.9-64.2l0.7-0.3c1.1,2.4,26.2,59.6,23,64.9&#10;&#9;&#9;C238.2,261.6,237.8,261.8,237.3,261.8z" style="fill: rgb(223, 155, 255);"/>
	
		<rect x="206.3" y="225.6" transform="matrix(0.7386 -0.6742 0.6742 0.7386 -91.6648 215.5878)" class="st9_biker-12 targetColor" width="51.7" height="0.7" style="fill: rgb(223, 155, 255);"/>
	
		<rect x="199.4" y="227" transform="matrix(8.785121e-02 -0.9961 0.9961 8.785121e-02 -16.928 436.2495)" class="st9_biker-12 targetColor" width="60.6" height="0.7" style="fill: rgb(223, 155, 255);"/>
	
		<rect x="231.2" y="202.2" transform="matrix(0.5354 -0.8446 0.8446 0.5354 -89.0704 303.7764)" class="st9_biker-12 targetColor" width="0.7" height="61.4" style="fill: rgb(223, 155, 255);"/>
	
		<rect x="317.3" y="245.1" transform="matrix(0.9189 -0.3944 0.3944 0.9189 -84.7593 148.0244)" class="st9_biker-12 targetColor" width="0.7" height="70.2" style="fill: rgb(223, 155, 255);"/>
	
		<rect x="297.2" y="280.9" transform="matrix(0.8217 -0.5699 0.5699 0.8217 -103.1475 232.8693)" class="st9_biker-12 targetColor" width="47" height="0.7" style="fill: rgb(223, 155, 255);"/>
	
		<rect x="288.3" y="278.5" transform="matrix(8.785121e-02 -0.9961 0.9961 8.785121e-02 12.8138 571.7252)" class="st9_biker-12 targetColor" width="60.6" height="0.7" style="fill: rgb(223, 155, 255);"/>
	
		<rect x="320.1" y="253.7" transform="matrix(0.5354 -0.8446 0.8446 0.5354 -91.2874 402.7439)" class="st9_biker-12 targetColor" width="0.7" height="61.4" style="fill: rgb(223, 155, 255);"/>
	<path class="st9_biker-12 targetColor" d="M269.3,260.2l-1.4,13.9l12,7.7c0,0-4.3,5.9-6.8,7s-17.7-8.8-17.7-8.8l5.4-7.7h3.2l2.3-15.2" style="fill: rgb(223, 155, 255);"/>
	<path class="st10_biker-12" d="M264,171.8c0,0,29.6,22.6,30.3,32.8S266,228.1,266,228.1l-6.8-14.5l16.3-8l-19.3-18.8"/>
	<path class="st11_biker-12" d="M275.1,205.8c6.4,1.1,13.3,0.9,18.8-2.5c-2.9-10.8-30.1-31.6-30.1-31.6l-11.4,16.9l23,16.9L275.1,205.8z"/>
	<path class="st11_biker-12" d="M328.6,315.6c-4.6-0.1-9.1-1.4-13-3.8c-8-4.8-14.4-11.8-18.4-20.2c-9.5-18.5-7-38.8,5.5-45.2&#10;&#9;&#9;s30.4,3.5,39.9,22l0,0c9.5,18.5,7,38.8-5.5,45.2C334.5,314.9,331.6,315.6,328.6,315.6z M311.2,248.7c-2.3,0-4.5,0.5-6.5,1.5&#10;&#9;&#9;c-10.4,5.3-12.1,23-3.7,39.4c3.7,7.6,9.5,14,16.7,18.4c6.3,3.6,12.5,4.2,17.4,1.7c10.4-5.3,12.1-23,3.7-39.4l0,0&#10;&#9;&#9;C332,257.1,320.8,248.7,311.2,248.7z"/>
	<path class="st9_biker-12 targetColor" d="M318.3,281.2l-12.2-34.4c-0.6-1.7-2.2-4.3-2.2-6.1c0-2.4,3.6-6.4,6-5.6s2.9,4.2,3.5,6.4&#10;&#9;&#9;c3.9,12.2,7.8,24.4,12,36.5c0.9,2.6,5,1.4,4.1-1.1c-3-8.8-6.4-17.6-9.1-26.5c-1.6-5.4-2.4-12-5.5-16.8c-5-7.8-16.9-1-15.4,7.4&#10;&#9;&#9;c1.2,6.9,5,14.2,7.4,20.8l7.4,20.7C315.1,285,319.3,283.8,318.3,281.2L318.3,281.2z" style="fill: rgb(223, 155, 255);"/>
	
		<rect x="298.5" y="198.9" transform="matrix(0.9507 -0.3102 0.3102 0.9507 -52.2078 103.8993)" class="st9_biker-12 targetColor" width="4.3" height="34.5" style="fill: rgb(223, 155, 255);"/>
	<path class="st9_biker-12 targetColor" d="M265.8,257.4l-42.5-26.2l33.5-23.5l48,15.4L265.8,257.4z M231.2,231l34.2,21.1l31-27.2l-38.7-12.4L231.2,231z" style="fill: rgb(223, 155, 255);"/>
	<ellipse transform="matrix(0.7071 -0.7071 0.7071 0.7071 -99.7901 265.114)" class="st9_biker-12 targetColor" cx="270.1" cy="253" rx="8" ry="10.7" style="fill: rgb(223, 155, 255);"/>
	<path class="st11_biker-12" d="M240.1,263.7c-11.2,0-24.1-9.2-31.6-23.9c-4.4-8.2-6.3-17.5-5.6-26.7c1-8.7,4.9-15.3,11.1-18.5&#10;&#9;&#9;s13.9-2.5,21.5,1.8c15.9,10.1,25.1,28.1,24,46.9c-1,8.7-4.9,15.3-11.1,18.5C245.8,263.1,243,263.8,240.1,263.7z M222.6,196.9&#10;&#9;&#9;c-2.3,0-4.5,0.5-6.5,1.5c-4.9,2.5-8,7.9-8.8,15.1c-0.7,8.4,1.1,16.9,5.1,24.3c8.4,16.4,23.7,25.4,34.1,20.1c4.9-2.5,8-7.9,8.8-15.1&#10;&#9;&#9;c1-17.1-7.4-33.5-21.8-42.7C230.2,198.1,226.4,197,222.6,196.9L222.6,196.9z"/>
	<path class="st11_biker-12" d="M264,268.7l14.2,13.1c0,0-2.3,6.3-8,4.3s-15.8-9.9-15.8-9.9v-10"/>
	<path class="st9_biker-12 targetColor" d="M273.4,214.5l47.6-27.1c1-0.6,1.3-2,0.7-3c-0.6-1-1.9-1.3-2.9-0.7l-47.6,27.1c-1,0.6-1.4,1.9-0.8,2.9&#10;&#9;&#9;S272.4,215.1,273.4,214.5L273.4,214.5z" style="fill: rgb(223, 155, 255);"/>
	<path class="st10_biker-12" d="M311.1,180.5l3.9,2.8c0,0,5.3,0.5,5.8,3.8s-6.2,6.6-7.6,6s0.7-2.6-2.8-4.1l-2.9,1.5c-1.4-1.5-1.6-3.7-0.7-5.5&#10;&#9;&#9;l-25.5-31.9l12.3-5.7L311.1,180.5z"/>
	<path class="st10_biker-12" d="M233.4,177c-0.4,6.7-0.1,13.5,0.9,20.2c1.7,9.9,20.2,25.9,20.2,25.9l-0.1,45.7c0,0,1.1,4.3,8.6,1.3&#10;&#9;&#9;c0,0,8.6-40.9,7.2-46.5s-14.4-42.8-14.4-42.8"/>
	<path class="st11_biker-12" d="M269,219.6c-3.5-11.1-13.3-39.1-13.3-39.1l-22.3-3.8c-1.5,6.6-1.9,13.4-0.9,20.1c1.2,7.3,15.5,20.2,21,26.1&#10;&#9;&#9;C258.8,223.2,264.2,222,269,219.6z"/>
	<path class="st9_biker-12 targetColor" d="M275.5,151.5c0,0-11.3,33.1-14.8,34.1s-25.3-3.8-27.3-8.6s14.8-45.6,30.6-44" style="fill: rgb(223, 155, 255);"/>
	<path class="st10_biker-12" d="M276.5,200l3.9,2.8c0,0,5.3,0.5,5.8,3.8s-6.2,6.6-7.6,6.1s0.7-2.6-2.8-4.1l-2.9,1.5c-1.4-1.5-1.6-3.7-0.7-5.5&#10;&#9;&#9;l-19.9-34.2l10.6-5.8L276.5,200z"/>
	<path class="st9_biker-12 targetColor" d="M285.8,131.1c-5.3-2-8.8-2-15.7-1.2s-19.5,8.3-22.2,16.3c-1.4,4.3-2.5,17.7,2.8,30.9c5-1.8,10.2-3.2,15.3-4.6&#10;&#9;&#9;l-5-13.1l14.5-8l10,12.3c4.9-3.7,10-7.1,15.2-10.5C294.6,142.4,288.2,132.1,285.8,131.1z" style="fill: rgb(223, 155, 255);"/>
	<path class="st10_biker-12" d="M286.8,124.5c0,0-2.1,19.7-6.8,19.3s-12-3.9-13.2-9.1s-1.2-16.6,3.3-17.4S286.8,124.5,286.8,124.5z"/>
	<path class="st6_biker-12" d="M279.8,131.4c0,0-1.5,4.4-3.2,3.2s-1.6-4.3-2.7-2.7s0.9,4.4-0.5,4.9s-3.6-3.1-4.6-2.7s0,2.5-2.1,2.7&#10;&#9;&#9;s-5.1-9.8-3.4-11.2S278.2,127.8,279.8,131.4z"/>
	<path class="st9_biker-12 targetColor" d="M274.1,130.2c2.6,0.4,5.2,0.4,7.8-0.1c3-0.8,5-4,6.2-7l-0.3-0.1c-0.7-3.1-1.9-7.8-4.8-9.7&#10;&#9;&#9;c-4.2-2.7-10.2-1.7-14.3,0.6c-2.1,1.1-3.8,2.9-4.7,5.1c-0.7,1.7-2.1,5-0.6,6.6s7.9,2.9,7.9,2.9&#10;&#9;&#9;C272.1,129.2,273.1,129.7,274.1,130.2z" style="fill: rgb(223, 155, 255);"/>
	<path class="st11_biker-12" d="M273.4,127.3c0,0-3.5,8.3-1.1,13.9c-1.2-0.1-2.4-0.6-3.3-1.4c0,0-1.7-9.6,1.1-14.4"/>
	<path class="st9_biker-12 targetColor" d="M282.9,113.4c0,0,8.4,7,8.7,16.4s-24.8-2.4-25.4-2.7s-3.6,1.6-3.6,1.6s-2.9-8.4-1.3-10.7&#10;&#9;&#9;S268.3,107.7,282.9,113.4z" style="fill: rgb(223, 155, 255);"/>
	<path class="st11_biker-12" d="M266.9,172.6c-2.1-5.7-3-11.9-2.6-18c0-0.4-0.3-0.7-0.7-0.7s-0.7,0.3-0.7,0.7c-0.5,6.2,0.4,12.4,2.6,18.3&#10;&#9;&#9;c-3.7,0.7-7.4,1.4-11.1,2.1c-1.2,0.2-2.9,0.9-4,0.1s-1.9-3.9-2.3-5.1c-1.9-6-1.9-12.3-1.4-18.5c0.1-0.9-1.4-0.9-1.4,0&#10;&#9;&#9;c-0.7,8.7-0.3,17.7,4.4,25.3c0.2,0.3,0.5,0.4,0.8,0.3l15.3-2.9C266.2,173.7,266.5,173.2,266.9,172.6L266.9,172.6z"/>
	<path class="st9_biker-12 targetColor" d="M285.4,133.3c-3.2-1.3-6-3.6-7.9-6.6c-3.3-5-16.1-2.5-16.1-2.5l-0.5-3.1c0,0,9.5-3.5,14.6,0&#10;&#9;&#9;S282.1,132.5,285.4,133.3z" style="fill: rgb(223, 155, 255);"/>
	<path class="st12_biker-12" d="M285.4,133.3c-3.2-1.3-6-3.6-7.9-6.6c-3.3-5-16.1-2.5-16.1-2.5l-0.5-3.1c0,0,9.5-3.5,14.6,0&#10;&#9;&#9;S282.1,132.5,285.4,133.3z"/>
</g>
</svg>